<svg width="32" height="32" viewBox="0 0 32 32" fill="none" xmlns="http://www.w3.org/2000/svg">
<path d="M19.5496 26.8972C18.9839 27.0058 18.8011 26.6572 18.8011 26.3601V23.2858C18.8011 22.2401 18.4354 21.5601 18.0296 21.2115C20.5268 20.9372 23.1439 19.9886 23.1439 15.6858C23.1439 14.4629 22.7096 13.4629 21.9896 12.6801C22.1039 12.3943 22.4868 11.2572 21.8811 9.71434C21.8811 9.71434 20.9439 9.41148 18.8068 10.8629C17.9096 10.6172 16.9554 10.4915 16.0011 10.4915C15.0468 10.4915 14.0925 10.6172 13.1954 10.8686C11.0582 9.42291 10.1154 9.72006 10.1154 9.72006C9.50964 11.2629 9.8925 12.4001 10.0068 12.6801C9.2925 13.4629 8.8525 14.4629 8.8525 15.6858C8.8525 19.9772 11.4639 20.9372 13.9554 21.2172C13.6354 21.4972 13.3439 21.9886 13.2468 22.7143C12.6068 23.0001 10.9896 23.4972 9.98964 21.7829C9.98964 21.7829 9.39536 20.7086 8.27536 20.6286C8.27536 20.6286 7.18393 20.6115 8.20107 21.3086C8.20107 21.3086 8.93821 21.6515 9.44107 22.9486C9.44107 22.9486 10.0868 24.9486 13.2068 24.2686V26.3543C13.2068 26.6515 13.0239 27.0001 12.4696 26.8915C8.01821 25.4115 4.8125 21.2172 4.8125 16.2686C4.8125 10.0858 9.82393 5.07434 16.0068 5.07434C22.1896 5.07434 27.2011 10.0858 27.2011 16.2686C27.2011 21.2115 23.9954 25.4115 19.5554 26.8915L19.5496 26.8972Z" fill="white"/>
</svg>
