<svg width="33" height="25" viewBox="0 0 33 25" fill="none" xmlns="http://www.w3.org/2000/svg">
<g clip-path="url(#clip0_6240_21404)">
<path d="M5.85693 18.9447C2.19996 18.3672 0.287616 15.388 1.11114 11.0203L5.57374 11.243C5.00869 13.8043 5.47337 15.2698 6.41373 15.4183C7.01452 15.5132 7.63868 14.7818 7.89028 13.1884L9.87828 0.59794L14.2928 1.29498L12.3048 13.8854C11.7686 17.2812 9.06983 19.452 5.85693 18.9447Z" fill="white"/>
<path d="M21.7241 23.9531L17.9492 5.88467L23.1264 4.80305C27.5011 3.88908 31.2483 7.21263 32.3083 12.2863C33.3737 17.3858 31.276 21.9575 26.9013 22.8714L21.7241 23.9531ZM26.1712 19.3768C27.9573 19.0037 28.6648 16.8297 27.9077 13.2056C27.1505 9.58162 25.6426 7.92449 23.8565 8.29765L23.054 8.4653L25.3687 19.5445L26.1712 19.3768Z" fill="white"/>
<circle cx="15.4525" cy="20.565" r="2.73567" fill="white"/>
</g>
<defs>
<clipPath id="clip0_6240_21404">
<rect width="33" height="25" fill="white"/>
</clipPath>
</defs>
</svg>
