<svg width="32" height="32" viewBox="0 0 32 32" fill="none" xmlns="http://www.w3.org/2000/svg">
<path d="M26.9891 11.3992C26.8901 13.5367 25.3941 16.4634 22.5011 20.1794C19.5091 24.0598 16.9791 26 14.911 26C13.6295 26 12.546 24.8162 11.655 22.4539C11.061 20.289 10.4725 18.1186 9.87852 15.9537C9.21852 13.5915 8.51452 12.4077 7.76101 12.4077C7.59601 12.4077 7.01851 12.7529 6.034 13.4435L5 12.1117C6.0835 11.158 7.15601 10.2044 8.21201 9.25072C9.65852 8.00658 10.7475 7.34889 11.468 7.28312C13.1785 7.1187 14.2345 8.2861 14.6305 10.7908C15.0595 13.4874 15.351 15.17 15.5215 15.8277C16.0166 18.0693 16.5556 19.1874 17.1496 19.1874C17.6116 19.1874 18.2991 18.4584 19.2231 17.0115C20.1471 15.5591 20.6366 14.452 20.7026 13.6956C20.8346 12.4405 20.3396 11.8157 19.2231 11.8157C18.6951 11.8157 18.1561 11.9363 17.5951 12.1775C18.6786 8.62591 20.7466 6.91043 23.7936 7.0036C26.0541 7.06937 27.1211 8.53274 26.9891 11.3937V11.3992Z" fill="white"/>
</svg>
