<svg width="32" height="32" viewBox="0 0 32 32" fill="none" xmlns="http://www.w3.org/2000/svg">
<path fill-rule="evenodd" clip-rule="evenodd" d="M16.0003 27.6629C9.56031 27.6629 4.32031 22.4286 4.32031 16C4.32031 9.57144 9.56031 4.33716 16.0003 4.33716C22.4403 4.33716 27.6803 9.57144 27.6803 16C27.6803 22.4286 22.4403 27.6629 16.0003 27.6629ZM25.8517 17.5943C25.5089 17.4857 22.766 16.6686 19.6346 17.1657C20.9375 20.7486 21.4689 23.6629 21.5717 24.2686C23.8117 22.76 25.406 20.3657 25.846 17.5886L25.8517 17.5943ZM19.8975 25.1829C19.7489 24.3086 19.1717 21.2629 17.7717 17.6286C17.7489 17.6343 17.726 17.6457 17.7032 17.6514C12.0746 19.6114 10.0575 23.5086 9.8746 23.8743C11.566 25.1943 13.6917 25.9772 16.0003 25.9772C17.3832 25.9772 18.6975 25.6972 19.8975 25.1829ZM8.58888 22.6743C8.81746 22.2857 11.5546 17.76 16.6975 16.0972C16.8289 16.0572 16.9603 16.0172 17.0917 15.9772C16.8403 15.4114 16.566 14.8457 16.2803 14.2857C11.2975 15.7772 6.46317 15.7143 6.02888 15.7029C6.02888 15.8057 6.02888 15.9029 6.02888 16.0057C6.02888 18.5657 7.00031 20.9029 8.5946 22.6686L8.58888 22.6743ZM6.2346 13.9714C6.68031 13.9772 10.7889 13.9943 15.4575 12.76C13.806 9.82287 12.0232 7.36002 11.7603 7.00002C8.97174 8.3143 6.88031 10.8857 6.2346 13.9772V13.9714ZM13.6632 6.32573C13.9375 6.69716 15.7489 9.16002 17.3832 12.16C20.9317 10.8343 22.4346 8.81716 22.6117 8.56002C20.8517 7.00002 18.5317 6.05144 16.0003 6.05144C15.1946 6.05144 14.4117 6.14859 13.6632 6.32573ZM23.726 9.7143C23.5146 10 21.846 12.1372 18.1546 13.64C18.3889 14.1143 18.6117 14.6 18.8175 15.0857C18.8917 15.2572 18.9603 15.4286 19.0346 15.6C22.3546 15.1829 25.6517 15.8514 25.9832 15.92C25.9603 13.5657 25.1203 11.4114 23.7317 9.7143H23.726Z" fill="white"/>
</svg>
