<svg width="32" height="32" viewBox="0 0 32 32" fill="none" xmlns="http://www.w3.org/2000/svg">
<path d="M11.7895 9.47998C12.4123 9.47998 12.9781 9.53712 13.4866 9.64569C13.9952 9.75427 14.4352 9.93712 14.8009 10.1828C15.1666 10.4286 15.4466 10.7657 15.6523 11.1771C15.8581 11.5886 15.9552 12.1028 15.9552 12.7086C15.9552 13.3657 15.8066 13.9143 15.5095 14.3543C15.2123 14.7943 14.7666 15.1543 14.1838 15.4343C14.9895 15.6628 15.5895 16.0686 15.9838 16.6457C16.3781 17.2228 16.5781 17.92 16.5781 18.7371C16.5781 19.3943 16.4523 19.9657 16.1952 20.4457C15.9381 20.9257 15.5952 21.32 15.1609 21.6228C14.7266 21.9257 14.2352 22.1543 13.6809 22.2971C13.1266 22.4457 12.5495 22.5143 11.9723 22.5143H5.65234V9.47998H11.7895ZM11.4238 14.76C11.9323 14.76 12.3552 14.64 12.6866 14.3943C13.0181 14.1486 13.1781 13.7543 13.1781 13.2057C13.1781 12.9028 13.1209 12.6514 13.0123 12.4571C12.9038 12.2628 12.7552 12.1086 12.5723 12C12.3895 11.8914 12.1781 11.8171 11.9438 11.7714C11.6981 11.7314 11.4523 11.7086 11.2009 11.7086H8.5152V14.76H11.4238ZM11.5895 20.2914C11.8581 20.2914 12.1266 20.2628 12.3952 20.2114C12.6523 20.1543 12.8752 20.0628 13.0695 19.9371C13.2638 19.8114 13.4181 19.6343 13.5381 19.4171C13.6523 19.2 13.7095 18.92 13.7095 18.5771C13.7095 17.9086 13.5209 17.4286 13.1438 17.1428C12.7666 16.8571 12.2695 16.7143 11.6466 16.7143H8.52663V20.2914H11.5952H11.5895ZM20.1838 20.0171C20.5723 20.3943 21.1323 20.5828 21.8638 20.5828C22.3895 20.5828 22.8352 20.4514 23.2123 20.1886C23.5895 19.9257 23.8238 19.6514 23.9038 19.36H26.1838C25.8181 20.4914 25.2581 21.3028 24.5038 21.7886C23.7495 22.2743 22.8352 22.52 21.7666 22.52C21.0238 22.52 20.3552 22.4 19.7609 22.1657C19.1666 21.9314 18.6581 21.5886 18.2466 21.1543C17.8352 20.72 17.5095 20.1943 17.2866 19.5828C17.0638 18.9714 16.9495 18.3028 16.9495 17.5771C16.9495 16.8514 17.0638 16.2171 17.2981 15.6057C17.5323 14.9943 17.8581 14.4686 18.2866 14.0286C18.7152 13.5886 19.2238 13.2343 19.8123 12.9771C20.4009 12.72 21.0581 12.5943 21.7781 12.5943C22.5838 12.5943 23.2809 12.7486 23.8809 13.0628C24.4752 13.3714 24.9666 13.7886 25.3495 14.3143C25.7323 14.84 26.0123 15.4343 26.1781 16.1028C26.3438 16.7714 26.4066 17.4743 26.3609 18.2057H19.5495C19.5838 19.04 19.8009 19.6514 20.1895 20.0286L20.1838 20.0171ZM23.1152 15.0514C22.8066 14.7086 22.3323 14.5428 21.6981 14.5428C21.2809 14.5428 20.9381 14.6114 20.6695 14.7543C20.3952 14.8971 20.1781 15.0686 20.0123 15.2743C19.8466 15.48 19.7323 15.7028 19.6638 15.9314C19.5952 16.16 19.5552 16.3714 19.5438 16.5543H23.7609C23.6352 15.8971 23.4238 15.4 23.1095 15.0571L23.1152 15.0514ZM19.1038 10.1428H24.3723V11.6057H19.1038V10.1428Z" fill="white"/>
</svg>
